<svg width="20" height="20" viewBox="0 0 20 20" fill="none" xmlns="http://www.w3.org/2000/svg">
<path opacity="0.4" d="M6.50817 1.66663H13.4832C16.5248 1.66663 18.3332 3.47496 18.3332 6.50829V13.4833C18.3332 16.5166 16.5248 18.325 13.4915 18.325H6.50817C3.47484 18.3333 1.6665 16.525 1.6665 13.4916V6.50829C1.6665 3.47496 3.47484 1.66663 6.50817 1.66663Z" fill="#EFF2F7"/>
<path d="M4.55833 9.55862L8.13333 5.98362C8.375 5.74195 8.775 5.74195 9.01667 5.98362C9.25833 6.22528 9.25833 6.62528 9.01667 6.86695L6.50833 9.37529H15C15.3417 9.37529 15.625 9.65862 15.625 10.0003C15.625 10.342 15.3417 10.6253 15 10.6253H6.50833L9.01667 13.1336C9.25833 13.3753 9.25833 13.7753 9.01667 14.017C8.89167 14.142 8.73333 14.2003 8.575 14.2003C8.41667 14.2003 8.25833 14.142 8.13333 14.017L4.55833 10.442C4.44167 10.3253 4.375 10.167 4.375 10.0003C4.375 9.83362 4.44167 9.67529 4.55833 9.55862Z" fill="#002859"/>
</svg>
